<svg width="0" height="0" class="hidden">
  <symbol id="address-location-map-svgrepo-com" version="1.1" xmlns="http://www.w3.org/2000/svg" xmlnsCc="http://creativecommons.org/ns#" xmlnsDc="http://purl.org/dc/elements/1.1/" xmlnsInkscape="http://www.inkscape.org/namespaces/inkscape" xmlnsRdf="http://www.w3.org/1999/02/22-rdf-syntax-ns#" xmlnsSodipodi="http://sodipodi.sourceforge.net/DTD/sodipodi-0.dtd" xmlnsSvg="http://www.w3.org/2000/svg" fill="#000000" viewBox="0 0 8.4666669 8.4666669">
    <g id="SVGRepo_bgCarrier" stroke-width="0"></g>
    <g id="SVGRepo_tracerCarrier" stroke-linecap="round" stroke-linejoin="round"></g>
    <g id="SVGRepo_iconCarrier">
      <defs id="defs2"></defs>
      <g id="layer1" transform="translate(0,-288.53332)">
        <path d="m 4.2324219,288.79688 c -1.6042437,0 -2.9101556,1.30591 -2.9101563,2.91015 -10e-7,2.82277 2.7460938,4.96875 2.7460938,4.96875 a 0.26460978,0.26460978 0 0 0 0.3300781,0 c 0,0 2.7460996,-2.14598 2.7460937,-4.96875 -3.4e-6,-1.60424 -1.3078657,-2.91015 -2.9121093,-2.91015 z m 0,0.52929 c 1.3182605,0 2.3828097,1.0626 2.3828125,2.38086 4.8e-6,2.30926 -2.0910618,4.13374 -2.3808594,4.38086 -0.2884142,-0.24588 -2.3828134,-2.0707 -2.3828125,-4.38086 5e-7,-1.31826 1.0625988,-2.38086 2.3808594,-2.38086 z" id="path929"></path>
        <path d="m 4.2324219,290.38477 c -0.7274912,0 -1.3222633,0.59477 -1.3222657,1.32226 -4.5e-6,0.7275 0.5947697,1.32422 1.3222657,1.32422 0.727496,0 1.3242233,-0.59672 1.3242187,-1.32422 -2.3e-6,-0.72749 -0.5967275,-1.32226 -1.3242187,-1.32226 z m 0,0.52929 c 0.4415089,0 0.7949204,0.35146 0.7949219,0.79297 2.7e-6,0.44151 -0.35341,0.79492 -0.7949219,0.79492 -0.441512,0 -0.7929715,-0.35341 -0.7929688,-0.79492 1.4e-6,-0.44151 0.3514598,-0.79297 0.7929688,-0.79297 z" id="circle931"></path>
      </g>
    </g>
  </symbol>
  <symbol fill="none" xmlns="http://www.w3.org/2000/svg" viewBox="0 0 24 24" id="mailbox-svgrepo-com">
    <g id="SVGRepo_bgCarrier" stroke-width="0"></g>
    <g id="SVGRepo_tracerCarrier" stroke-linecap="round" stroke-linejoin="round"></g>
    <g id="SVGRepo_iconCarrier">
      <path opacity="0.5" d="M10.5 22V20M14.5 22V20" stroke="#fb5e09" stroke-width="1.5" stroke-linecap="round"></path>
      <path d="M11 20V20.75H11.75V20H11ZM14 19.25C13.5858 19.25 13.25 19.5858 13.25 20C13.25 20.4142 13.5858 20.75 14 20.75V19.25ZM17.5 5.25C17.0858 5.25 16.75 5.58579 16.75 6C16.75 6.41421 17.0858 6.75 17.5 6.75V5.25ZM7 5.25C6.58579 5.25 6.25 5.58579 6.25 6C6.25 6.41421 6.58579 6.75 7 6.75V5.25ZM9 19.25C8.58579 19.25 8.25 19.5858 8.25 20C8.25 20.4142 8.58579 20.75 9 20.75V19.25ZM15 20.75C15.4142 20.75 15.75 20.4142 15.75 20C15.75 19.5858 15.4142 19.25 15 19.25V20.75ZM10.25 11.25V20H11.75V11.25H10.25ZM11 19.25H4.23256V20.75H11V19.25ZM2.75 17.3953V11.25H1.25V17.3953H2.75ZM4.23256 19.25C3.51806 19.25 2.75 18.5323 2.75 17.3953H1.25C1.25 19.1354 2.48104 20.75 4.23256 20.75V19.25ZM6.5 6.75C8.46677 6.75 10.25 8.65209 10.25 11.25H11.75C11.75 8.04892 9.50379 5.25 6.5 5.25V6.75ZM6.5 5.25C3.49621 5.25 1.25 8.04892 1.25 11.25H2.75C2.75 8.65209 4.53323 6.75 6.5 6.75V5.25ZM21.25 11.25V17.4253H22.75V11.25H21.25ZM19.7931 19.25H14V20.75H19.7931V19.25ZM21.25 17.4253C21.25 18.5457 20.4934 19.25 19.7931 19.25V20.75C21.5305 20.75 22.75 19.1488 22.75 17.4253H21.25ZM22.75 11.25C22.75 8.04892 20.5038 5.25 17.5 5.25V6.75C19.4668 6.75 21.25 8.65209 21.25 11.25H22.75ZM7 6.75H18V5.25H7V6.75ZM9 20.75H15V19.25H9V20.75Z" fill="#fb5e09"></path>
      <path d="M5 16H8" stroke="#fb5e09" stroke-width="1.5" stroke-linecap="round"></path>
      <path opacity="0.5" d="M16 9.88432V5.41121M16 5.41121V2.63519C16 2.39905 16.1676 2.19612 16.3994 2.15144L16.8855 2.05779C17.4738 1.94443 18.0821 1.99855 18.6412 2.214L18.7203 2.24451C19.2746 2.4581 19.8807 2.498 20.4582 2.35891C20.7343 2.2924 21 2.50168 21 2.78573V5.00723C21 5.2442 20.8376 5.45031 20.6073 5.5058L20.5407 5.52184C19.9095 5.67387 19.247 5.63026 18.6412 5.39679C18.0821 5.18135 17.4738 5.12722 16.8855 5.24058L16 5.41121Z" stroke="#fb5e09" stroke-width="1.5" stroke-linecap="round"></path>
    </g>
  </symbol>
  <symbol fill="none" xmlns="http://www.w3.org/2000/svg" viewBox="0 0 24 24" id="phone-calling-svgrepo-com (1)">
    <g id="SVGRepo_bgCarrier" stroke-width="0"></g>
    <g id="SVGRepo_tracerCarrier" stroke-linecap="round" stroke-linejoin="round"></g>
    <g id="SVGRepo_iconCarrier">
      <path d="M13.5 2C13.5 2 15.8335 2.21213 18.8033 5.18198C21.7731 8.15183 21.9853 10.4853 21.9853 10.4853" stroke="#fd490d" stroke-width="1.5" stroke-linecap="round"></path>
      <path d="M14.207 5.53564C14.207 5.53564 15.197 5.81849 16.6819 7.30341C18.1668 8.78834 18.4497 9.77829 18.4497 9.77829" stroke="#fd490d" stroke-width="1.5" stroke-linecap="round"></path>
      <path opacity="0.5" d="M15.1007 15.0272L14.5569 14.5107L15.1007 15.0272ZM15.5562 14.5477L16.1 15.0642H16.1L15.5562 14.5477ZM17.9728 14.2123L17.5987 14.8623H17.5987L17.9728 14.2123ZM19.8833 15.312L19.5092 15.962L19.8833 15.312ZM20.4217 18.7584L20.9655 19.2749L20.4217 18.7584ZM19.0011 20.254L18.4573 19.7375L19.0011 20.254ZM17.6763 20.9631L17.7499 21.7095L17.6763 20.9631ZM7.81536 16.4752L8.35915 15.9587L7.81536 16.4752ZM3.00289 6.96594L2.25397 7.00613L2.25397 7.00613L3.00289 6.96594ZM9.47752 8.50311L10.0213 9.01963H10.0213L9.47752 8.50311ZM9.63424 5.6931L10.2466 5.26012L9.63424 5.6931ZM8.37326 3.90961L7.76086 4.3426V4.3426L8.37326 3.90961ZM5.26145 3.60864L5.80524 4.12516L5.26145 3.60864ZM3.69185 5.26114L3.14806 4.74462L3.14806 4.74462L3.69185 5.26114ZM11.0631 13.0559L11.6069 12.5394L11.0631 13.0559ZM15.6445 15.5437L16.1 15.0642L15.0124 14.0312L14.5569 14.5107L15.6445 15.5437ZM17.5987 14.8623L19.5092 15.962L20.2575 14.662L18.347 13.5623L17.5987 14.8623ZM19.8779 18.2419L18.4573 19.7375L19.5449 20.7705L20.9655 19.2749L19.8779 18.2419ZM17.6026 20.2167C16.1676 20.3584 12.4233 20.2375 8.35915 15.9587L7.27157 16.9917C11.7009 21.655 15.9261 21.8895 17.7499 21.7095L17.6026 20.2167ZM8.35915 15.9587C4.48303 11.8778 3.83285 8.43556 3.75181 6.92574L2.25397 7.00613C2.35322 8.85536 3.1384 12.6403 7.27157 16.9917L8.35915 15.9587ZM9.7345 9.32159L10.0213 9.01963L8.93372 7.9866L8.64691 8.28856L9.7345 9.32159ZM10.2466 5.26012L8.98565 3.47663L7.76086 4.3426L9.02185 6.12608L10.2466 5.26012ZM4.71766 3.09213L3.14806 4.74462L4.23564 5.77765L5.80524 4.12516L4.71766 3.09213ZM9.1907 8.80507C8.64691 8.28856 8.64622 8.28929 8.64552 8.29002C8.64528 8.29028 8.64458 8.29102 8.64411 8.29152C8.64316 8.29254 8.64219 8.29357 8.64121 8.29463C8.63924 8.29675 8.6372 8.29896 8.6351 8.30127C8.63091 8.30588 8.62646 8.31087 8.62178 8.31625C8.61243 8.32701 8.60215 8.33931 8.59116 8.3532C8.56918 8.38098 8.54431 8.41512 8.51822 8.45588C8.46591 8.53764 8.40917 8.64531 8.36112 8.78033C8.26342 9.0549 8.21018 9.4185 8.27671 9.87257C8.40742 10.7647 8.99198 11.9644 10.5193 13.5724L11.6069 12.5394C10.1793 11.0363 9.82761 10.1106 9.76086 9.65511C9.72866 9.43536 9.76138 9.31957 9.77432 9.28321C9.78159 9.26277 9.78635 9.25709 9.78169 9.26437C9.77944 9.26789 9.77494 9.27451 9.76738 9.28407C9.76359 9.28885 9.75904 9.29437 9.7536 9.30063C9.75088 9.30375 9.74793 9.30706 9.74476 9.31056C9.74317 9.31231 9.74152 9.3141 9.73981 9.31594C9.73896 9.31686 9.73809 9.31779 9.7372 9.31873C9.73676 9.3192 9.73608 9.31992 9.73586 9.32015C9.73518 9.32087 9.7345 9.32159 9.1907 8.80507ZM10.5193 13.5724C12.0422 15.1757 13.1923 15.806 14.0698 15.9485C14.5201 16.0216 14.8846 15.9632 15.1606 15.8544C15.2955 15.8012 15.4022 15.7387 15.4823 15.6819C15.5223 15.6535 15.5556 15.6266 15.5824 15.6031C15.5959 15.5913 15.6077 15.5803 15.618 15.5703C15.6232 15.5654 15.628 15.5606 15.6324 15.5562C15.6346 15.554 15.6367 15.5518 15.6387 15.5497C15.6397 15.5487 15.6407 15.5477 15.6417 15.5467C15.6422 15.5462 15.6429 15.5454 15.6431 15.5452C15.6438 15.5444 15.6445 15.5437 15.1007 15.0272C14.5569 14.5107 14.5576 14.51 14.5583 14.5093C14.5585 14.509 14.5592 14.5083 14.5596 14.5078C14.5605 14.5069 14.5614 14.506 14.5623 14.5051C14.5641 14.5033 14.5658 14.5015 14.5674 14.4998C14.5708 14.4965 14.574 14.4933 14.577 14.4904C14.583 14.4846 14.5885 14.4796 14.5933 14.4754C14.6028 14.467 14.6099 14.4616 14.6145 14.4584C14.6239 14.4517 14.6229 14.454 14.6102 14.459C14.5909 14.4666 14.5 14.4987 14.3103 14.4679C13.9077 14.4025 13.0391 14.0472 11.6069 12.5394L10.5193 13.5724ZM8.98565 3.47663C7.97206 2.04305 5.94384 1.80119 4.71766 3.09213L5.80524 4.12516C6.32808 3.57471 7.24851 3.61795 7.76086 4.3426L8.98565 3.47663ZM3.75181 6.92574C3.73038 6.52644 3.90425 6.12654 4.23564 5.77765L3.14806 4.74462C2.61221 5.30877 2.20493 6.09246 2.25397 7.00613L3.75181 6.92574ZM18.4573 19.7375C18.1783 20.0313 17.8864 20.1887 17.6026 20.2167L17.7499 21.7095C18.497 21.6357 19.1016 21.2373 19.5449 20.7705L18.4573 19.7375ZM10.0213 9.01963C10.9889 8.00095 11.0574 6.40678 10.2466 5.26012L9.02185 6.12608C9.44399 6.72315 9.37926 7.51753 8.93372 7.9866L10.0213 9.01963ZM19.5092 15.962C20.33 16.4345 20.4907 17.5968 19.8779 18.2419L20.9655 19.2749C22.2704 17.901 21.8904 15.6019 20.2575 14.662L19.5092 15.962ZM16.1 15.0642C16.4854 14.6584 17.086 14.5672 17.5987 14.8623L18.347 13.5623C17.2485 12.93 15.8861 13.1113 15.0124 14.0312L16.1 15.0642Z" fill="#fd490d"></path>
    </g>
  </symbol>
  <symbol fill="none" xmlns="http://www.w3.org/2000/svg" viewBox="0 0 24 24" id="calling">
    <g fill="#000">
      <path d="m14.4183 5.49c-.4761-.08794-.9133.21586-1.0039.68054s.2141.91837.6772 1.0093c1.3943.27182 2.4708 1.35108 2.7437 2.75011v.001c.0777.40275.4322.69555.8406.69555.0547 0 .1095-.005.1653-.015.4631-.0929.7678-.5456.6772-1.01132-.4073-2.08956-2.0157-3.70346-4.1001-4.11018z"></path>
      <path d="m14.356 2.00805c-.2231-.03198-.4472.03398-.6255.17588-.1832.1439-.2977.35176-.3226.5846-.0528.47068.2868.89638.7569.94935 3.2416.36175 5.7612 2.88701 6.1257 6.13878.0488.43574.4143.76444.8505.76444.0329 0 .0648-.002.0976-.006.2281-.0249.4313-.1379.5747-.3177.1424-.1799.2071-.40376.1812-.63261-.4541-4.05721-3.5942-7.20605-7.6385-7.65674z"></path>
      <path clip-rule="evenodd" d="m11.0317 12.9725c3.9891 3.988 4.8941-.6257 7.4339 1.9124 2.4487 2.448 3.856 2.9384.7536 6.0399-.3886.3123-2.8576 4.0696-11.5346-4.605-8.678078-8.67568-4.92302-11.14723-4.61063-11.53573 3.1099-3.1101 3.59189-1.69457 6.04052.75338 2.53991 2.53917-2.07183 3.44709 1.91721 7.43505z" fill-rule="evenodd"></path>
    </g>
  </symbol>
</svg>